<svg width="191" height="154" viewBox="0 0 191 154" fill="none" xmlns="http://www.w3.org/2000/svg">
<path d="M17.4886 120.364C17.3352 119.068 16.7131 118.062 15.6222 117.347C14.5313 116.631 13.1932 116.273 11.608 116.273C10.4489 116.273 9.43466 116.46 8.56534 116.835C7.70455 117.21 7.03125 117.726 6.54545 118.382C6.06818 119.038 5.82955 119.784 5.82955 120.619C5.82955 121.318 5.99574 121.919 6.32812 122.422C6.66903 122.916 7.10369 123.33 7.6321 123.662C8.16051 123.986 8.71449 124.254 9.29403 124.467C9.87358 124.672 10.4062 124.838 10.892 124.966L13.5511 125.682C14.233 125.861 14.9915 126.108 15.8267 126.423C16.6705 126.739 17.4759 127.169 18.2429 127.714C19.0185 128.251 19.6577 128.942 20.1605 129.786C20.6634 130.629 20.9148 131.665 20.9148 132.892C20.9148 134.307 20.544 135.585 19.8026 136.727C19.0696 137.869 17.9957 138.777 16.581 139.45C15.1747 140.124 13.4659 140.46 11.4545 140.46C9.57955 140.46 7.95597 140.158 6.58381 139.553C5.22017 138.947 4.14631 138.104 3.36222 137.021C2.58665 135.939 2.14773 134.682 2.04545 133.25H5.31818C5.40341 134.239 5.7358 135.057 6.31534 135.705C6.90341 136.344 7.64489 136.821 8.53977 137.136C9.44318 137.443 10.4148 137.597 11.4545 137.597C12.6648 137.597 13.7514 137.401 14.7145 137.009C15.6776 136.608 16.4403 136.054 17.0028 135.347C17.5653 134.631 17.8466 133.795 17.8466 132.841C17.8466 131.972 17.6037 131.264 17.1179 130.719C16.6321 130.173 15.9929 129.73 15.2003 129.389C14.4077 129.048 13.5511 128.75 12.6307 128.494L9.40909 127.574C7.36364 126.986 5.74432 126.146 4.55114 125.055C3.35795 123.964 2.76136 122.537 2.76136 120.773C2.76136 119.307 3.15767 118.028 3.95028 116.938C4.75142 115.838 5.82528 114.986 7.17188 114.381C8.52699 113.767 10.0398 113.46 11.7102 113.46C13.3977 113.46 14.8977 113.763 16.2102 114.368C17.5227 114.964 18.5625 115.783 19.3295 116.822C20.1051 117.862 20.5142 119.043 20.5568 120.364H17.4886ZM33.6957 140.409C31.8548 140.409 30.2695 139.974 28.94 139.105C27.6104 138.236 26.5877 137.038 25.8718 135.513C25.1559 133.987 24.7979 132.244 24.7979 130.284C24.7979 128.29 25.1644 126.53 25.8974 125.004C26.6388 123.47 27.6701 122.273 28.9911 121.412C30.3207 120.543 31.8718 120.108 33.6445 120.108C35.0252 120.108 36.2695 120.364 37.3775 120.875C38.4854 121.386 39.3931 122.102 40.1005 123.023C40.8079 123.943 41.2468 125.017 41.4173 126.244H38.4002C38.1701 125.349 37.6587 124.557 36.8661 123.866C36.082 123.168 35.0252 122.818 33.6957 122.818C32.5195 122.818 31.4883 123.125 30.6019 123.739C29.7241 124.344 29.038 125.2 28.5437 126.308C28.0579 127.408 27.815 128.699 27.815 130.182C27.815 131.699 28.0536 133.02 28.5309 134.145C29.0167 135.27 29.6985 136.143 30.5763 136.766C31.4627 137.388 32.5025 137.699 33.6957 137.699C34.4798 137.699 35.1914 137.562 35.8306 137.29C36.4698 137.017 37.011 136.625 37.4542 136.114C37.8974 135.602 38.2127 134.989 38.4002 134.273H41.4173C41.2468 135.432 40.8249 136.476 40.1516 137.405C39.4869 138.325 38.6048 139.058 37.5053 139.604C36.4144 140.141 35.1445 140.409 33.6957 140.409ZM48.8448 128.188V140H45.8278V113.818H48.8448V123.432H49.1005C49.5607 122.418 50.2511 121.612 51.1715 121.016C52.1005 120.411 53.3363 120.108 54.8789 120.108C56.217 120.108 57.3888 120.376 58.3945 120.913C59.4002 121.442 60.18 122.256 60.734 123.355C61.2965 124.446 61.5778 125.835 61.5778 127.523V140H58.5607V127.727C58.5607 126.168 58.1559 124.962 57.3462 124.109C56.5451 123.249 55.4329 122.818 54.0096 122.818C53.021 122.818 52.1346 123.027 51.3505 123.445C50.5749 123.862 49.9613 124.472 49.5096 125.273C49.0664 126.074 48.8448 127.045 48.8448 128.188ZM75.0746 140.409C73.3018 140.409 71.7464 139.987 70.4084 139.143C69.0788 138.3 68.0391 137.119 67.2891 135.602C66.5476 134.085 66.1768 132.312 66.1768 130.284C66.1768 128.239 66.5476 126.453 67.2891 124.928C68.0391 123.402 69.0788 122.217 70.4084 121.374C71.7464 120.53 73.3018 120.108 75.0746 120.108C76.8473 120.108 78.3984 120.53 79.728 121.374C81.0661 122.217 82.1058 123.402 82.8473 124.928C83.5973 126.453 83.9723 128.239 83.9723 130.284C83.9723 132.312 83.5973 134.085 82.8473 135.602C82.1058 137.119 81.0661 138.3 79.728 139.143C78.3984 139.987 76.8473 140.409 75.0746 140.409ZM75.0746 137.699C76.4212 137.699 77.5291 137.354 78.3984 136.663C79.2678 135.973 79.9112 135.065 80.3288 133.94C80.7464 132.815 80.9553 131.597 80.9553 130.284C80.9553 128.972 80.7464 127.749 80.3288 126.615C79.9112 125.482 79.2678 124.565 78.3984 123.866C77.5291 123.168 76.4212 122.818 75.0746 122.818C73.728 122.818 72.62 123.168 71.7507 123.866C70.8814 124.565 70.2379 125.482 69.8203 126.615C69.4027 127.749 69.1939 128.972 69.1939 130.284C69.1939 131.597 69.4027 132.815 69.8203 133.94C70.2379 135.065 70.8814 135.973 71.7507 136.663C72.62 137.354 73.728 137.699 75.0746 137.699ZM96.555 140.409C94.7823 140.409 93.2269 139.987 91.8888 139.143C90.5593 138.3 89.5195 137.119 88.7695 135.602C88.0281 134.085 87.6573 132.312 87.6573 130.284C87.6573 128.239 88.0281 126.453 88.7695 124.928C89.5195 123.402 90.5593 122.217 91.8888 121.374C93.2269 120.53 94.7823 120.108 96.555 120.108C98.3278 120.108 99.8789 120.53 101.208 121.374C102.547 122.217 103.586 123.402 104.328 124.928C105.078 126.453 105.453 128.239 105.453 130.284C105.453 132.312 105.078 134.085 104.328 135.602C103.586 137.119 102.547 138.3 101.208 139.143C99.8789 139.987 98.3278 140.409 96.555 140.409ZM96.555 137.699C97.9016 137.699 99.0096 137.354 99.8789 136.663C100.748 135.973 101.392 135.065 101.809 133.94C102.227 132.815 102.436 131.597 102.436 130.284C102.436 128.972 102.227 127.749 101.809 126.615C101.392 125.482 100.748 124.565 99.8789 123.866C99.0096 123.168 97.9016 122.818 96.555 122.818C95.2085 122.818 94.1005 123.168 93.2312 123.866C92.3619 124.565 91.7184 125.482 91.3008 126.615C90.8832 127.749 90.6744 128.972 90.6744 130.284C90.6744 131.597 90.8832 132.815 91.3008 133.94C91.7184 135.065 92.3619 135.973 93.2312 136.663C94.1005 137.354 95.2085 137.699 96.555 137.699ZM113.075 113.818V140H110.058V113.818H113.075ZM130.209 113.818L137.982 135.858H138.289L146.061 113.818H149.385L139.772 140H136.499L126.885 113.818H130.209ZM157.005 140.46C155.76 140.46 154.631 140.226 153.617 139.757C152.603 139.28 151.797 138.594 151.201 137.699C150.604 136.795 150.306 135.705 150.306 134.426C150.306 133.301 150.527 132.389 150.971 131.69C151.414 130.983 152.006 130.429 152.748 130.028C153.489 129.628 154.307 129.33 155.202 129.134C156.105 128.929 157.013 128.767 157.925 128.648C159.118 128.494 160.086 128.379 160.827 128.303C161.577 128.217 162.123 128.077 162.463 127.881C162.813 127.685 162.988 127.344 162.988 126.858V126.756C162.988 125.494 162.642 124.514 161.952 123.815C161.27 123.116 160.235 122.767 158.846 122.767C157.405 122.767 156.276 123.082 155.458 123.713C154.64 124.344 154.064 125.017 153.732 125.733L150.868 124.71C151.38 123.517 152.061 122.588 152.914 121.923C153.775 121.25 154.712 120.781 155.726 120.517C156.749 120.244 157.755 120.108 158.743 120.108C159.374 120.108 160.098 120.185 160.917 120.338C161.743 120.483 162.54 120.786 163.307 121.246C164.083 121.706 164.726 122.401 165.238 123.33C165.749 124.259 166.005 125.503 166.005 127.062V140H162.988V137.341H162.834C162.63 137.767 162.289 138.223 161.811 138.709C161.334 139.195 160.699 139.608 159.907 139.949C159.114 140.29 158.147 140.46 157.005 140.46ZM157.465 137.75C158.658 137.75 159.664 137.516 160.482 137.047C161.309 136.578 161.931 135.973 162.348 135.232C162.775 134.49 162.988 133.71 162.988 132.892V130.131C162.86 130.284 162.578 130.425 162.144 130.553C161.718 130.672 161.223 130.778 160.661 130.872C160.107 130.957 159.566 131.034 159.037 131.102C158.517 131.162 158.096 131.213 157.772 131.256C156.988 131.358 156.255 131.524 155.573 131.754C154.9 131.976 154.354 132.312 153.936 132.764C153.527 133.207 153.323 133.812 153.323 134.58C153.323 135.628 153.711 136.42 154.486 136.957C155.27 137.486 156.263 137.75 157.465 137.75ZM174.528 128.188V140H171.511V120.364H174.426V123.432H174.682C175.142 122.435 175.841 121.634 176.778 121.028C177.716 120.415 178.926 120.108 180.409 120.108C181.739 120.108 182.902 120.381 183.899 120.926C184.896 121.463 185.672 122.281 186.226 123.381C186.78 124.472 187.057 125.852 187.057 127.523V140H184.04V127.727C184.04 126.185 183.639 124.983 182.838 124.122C182.037 123.253 180.938 122.818 179.54 122.818C178.577 122.818 177.716 123.027 176.957 123.445C176.207 123.862 175.615 124.472 175.18 125.273C174.746 126.074 174.528 127.045 174.528 128.188Z" fill="#FED877"/>
<rect x="38.4966" width="108.857" height="102" rx="23" fill="#FED877"/>
<rect x="57.9763" y="10.1438" width="32.6572" height="49.0276" rx="5" fill="#404040"/>
<rect x="42.5623" y="10.7073" width="8.59399" height="25.9227" rx="1" fill="#404040"/>
<rect x="135.377" y="10.7073" width="8.59399" height="25.9227" rx="1" fill="#404040"/>
<rect x="97.5087" y="10.1438" width="32.6572" height="49.0276" rx="5" fill="#404040"/>
<path d="M62.7965 88.4231C62.9114 83.6003 76.5837 91.4583 93.8476 91.8562C111.112 92.2541 125.43 85.0412 125.315 89.864C125.2 94.6868 111.112 98.2739 93.8476 97.876C76.5837 97.4781 62.6816 93.2459 62.7965 88.4231Z" fill="#404040"/>
<rect x="70.0078" y="65.9338" width="13.1774" height="12.9613" rx="6" fill="#404040"/>
<rect width="13.1774" height="12.9613" rx="6" transform="matrix(-1 0 0 1 116.397 65.9338)" fill="#404040"/>
<rect width="1.96643" height="14.71" transform="matrix(0.87735 -0.479851 0.492128 0.870523 70.0426 16.3967)" fill="#FED877"/>
<rect width="1.96643" height="14.71" transform="matrix(0.87735 -0.479851 0.492128 0.870523 117.023 16.3967)" fill="#FED877"/>
<rect width="1.96643" height="7.02001" transform="matrix(0.87735 -0.479851 0.492128 0.870523 67.7161 26.3027)" fill="#FED877"/>
<rect width="1.96643" height="7.02001" transform="matrix(0.87735 -0.479851 0.492128 0.870523 115.843 34.1921)" fill="#FED877"/>
<path d="M89.0884 85.2051C88.7696 90.2727 82.3566 82.1213 73.8457 81.6034C65.3349 81.0855 61.9284 86.2146 62.2471 81.147C62.5659 76.0794 65.7445 74.5737 74.2553 75.0916C82.7662 75.6096 89.4072 80.1375 89.0884 85.2051Z" fill="#FED877"/>
</svg>
