<svg width="38" height="42" viewBox="0 0 38 42" fill="none" xmlns="http://www.w3.org/2000/svg">
<path d="M14.6771 1.25555C9.37181 4.19786 8.19285 10.769 12.221 15.4767C14.2842 18.0267 15.4631 18.5171 19 18.5171C29.0212 18.5171 31.7721 5.57094 22.7334 0.96132C19.9825 -0.411757 17.6245 -0.31368 14.6771 1.25555Z" fill="black"/>
<path d="M3.77173 26.1669C0.234841 29.6976 -1.04237 35.5822 0.922569 39.0149L2.39627 41.5649H19H35.6037L37.0774 39.0149C39.0424 35.5822 37.7652 29.6976 34.2283 26.1669C31.4774 23.4207 31.3791 23.4207 19 23.4207C6.62089 23.4207 6.52264 23.4207 3.77173 26.1669Z" fill="black"/>
</svg>
